<svg xmlns="http://www.w3.org/2000/svg" xmlns:xlink="http://www.w3.org/1999/xlink" width="13" height="26"><defs><path id="a" d="M115.313 360.191h2.865v11.43c0 .226.19.408.422.408h4.858c.232 0 .42-.182.42-.408v-11.376h3.294a.416.416 0 0 0 .418-.361l.5-4.208a.402.402 0 0 0-.104-.318.426.426 0 0 0-.314-.137h-3.793v-2.638c0-.795.442-1.198 1.312-1.198h2.48a.415.415 0 0 0 .422-.409v-3.861a.415.415 0 0 0-.421-.41h-3.418c-.024 0-.078-.002-.157-.002-.592 0-2.654.113-4.282 1.565-1.805 1.609-1.554 3.535-1.494 3.869v3.084h-3.008a.415.415 0 0 0-.421.409v4.153c0 .226.189.408.42.408z"/></defs><use fill="#414594" xlink:href="#a" transform="translate(-115 -346)"/></svg>